<svg id="Layer_1" data-name="Layer 1" xmlns="http://www.w3.org/2000/svg" viewBox="0 0 175 175"><defs><style>.cls-1{fill:#fff;}.cls-2{fill:#007797;}.cls-2,.cls-3,.cls-4,.cls-5,.cls-6,.cls-7,.cls-8,.cls-9{opacity:0.7;}.cls-3{fill:#0874ff;}.cls-4{fill:#10f4ff;}.cls-5{fill:#005ae3;}.cls-6{fill:#0081a5;}.cls-7{fill:#649eff;}.cls-8{fill:#000874;}.cls-9{fill:#00019d;}</style></defs><title>cosmic-messenger</title><g id="base"><path class="cls-1" d="M176.1,142.8A87.5,87.5,0,1,0,99.5,188a86.2,86.2,0,0,0,45.8-13l35.7,4Z" transform="translate(-12 -13)"/></g><path class="cls-2" d="M186,86.9,13.7,83.2c-.1.4-.1.8-.2,1.2,35.4,5.4,149.8,25,172.6,28.9a89.7,89.7,0,0,0,.9-12.8A102.4,102.4,0,0,0,186,86.9Z" transform="translate(-12 -13)"/><path class="cls-3" d="M182.7,73.5,36.4,39.9A87.2,87.2,0,0,0,12,100.5a83.2,83.2,0,0,0,.7,11.2L183,74.4A3.2,3.2,0,0,0,182.7,73.5Z" transform="translate(-12 -13)"/><path class="cls-4" d="M62.2,21.4,167.4,45.3A87.4,87.4,0,0,0,99.5,13,86.1,86.1,0,0,0,62.2,21.4Z" transform="translate(-12 -13)"/><path class="cls-5" d="M17.6,69.7,173.8,54.3a88.6,88.6,0,0,0-32.1-30.5L19.2,65.8C18.6,67.1,18.1,68.4,17.6,69.7Z" transform="translate(-12 -13)"/><path class="cls-4" d="M17.7,69.4l140.2-34a87.5,87.5,0,0,0-18.1-12.6L88.7,13.7A87.6,87.6,0,0,0,17.7,69.4Z" transform="translate(-12 -13)"/><path class="cls-6" d="M175.9,57.8l-2.1-3.5L30,47.3A86.2,86.2,0,0,0,16.3,73.5l-2.6,9.7a98.4,98.4,0,0,0-1.6,12.3Z" transform="translate(-12 -13)"/><path class="cls-7" d="M179.4,167,12,100.6a87.5,87.5,0,0,0,38,72.1l129.8-2.6Z" transform="translate(-12 -13)"/><path class="cls-6" d="M173.3,53.5,13,113.7c.1.9.3,1.7.4,2.5l170.9,5.7a83.7,83.7,0,0,0,2.7-21.4A86.8,86.8,0,0,0,173.3,53.5Z" transform="translate(-12 -13)"/><path class="cls-7" d="M14,119H185a87.4,87.4,0,0,0,2-18.5A85.5,85.5,0,0,0,183.2,75C158,81.4,15.6,117.7,14,119Z" transform="translate(-12 -13)"/><path class="cls-7" d="M15.4,124.7c24.5,6.9,126.1,33.6,164.1,43.5l-3.4-25.4a85,85,0,0,0,8.4-21.7L14.9,122.9C15.1,123.5,15.2,124.1,15.4,124.7Z" transform="translate(-12 -13)"/><path class="cls-8" d="M23.6,144c1,1.8,2.1,3.6,3.2,5.3,26.9,7.1,76.8,19.9,112.6,29.1,2-1.1,4-2.2,5.9-3.4l35.7,4-4.7-35Z" transform="translate(-12 -13)"/><path class="cls-9" d="M177.8,155,71.1,183.3A89,89,0,0,0,99.5,188a86.2,86.2,0,0,0,45.8-13l35.7,4Z" transform="translate(-12 -13)"/><path class="cls-8" d="M24,144l1.6,3.4a87.5,87.5,0,0,0,113.7,31Z" transform="translate(-12 -13)"/><path class="cls-5" d="M12.2,105.6a86.9,86.9,0,0,0,5.1,25,57.3,57.3,0,0,1,2.5,6l.6,1.4,163.9-15.7a20.5,20.5,0,0,0,.5-2.4Z" transform="translate(-12 -13)"/></svg>